<svg xmlns="http://www.w3.org/2000/svg" width="48" height="48" viewBox="0 0 48 48"><path fill="#90CAF9" d="M31.619,22.104c0-0.215-0.086-0.42-0.237-0.572l-4.914-4.911c-0.315-0.315-0.827-0.315-1.143,0c0,0-13.78,13.975-15.185,15.38c0,0,0.201-0.219,0,0h12.016l9.226-9.325C31.533,22.523,31.619,22.317,31.619,22.104z"/><path fill="#FF9800" d="M35.102,20.025c-0.215,0-0.42-0.086-0.572-0.238l-6.315-6.315c-0.315-0.315-0.315-0.827,0-1.144c0,0,5.687-5.686,5.779-5.78C34.993,5.549,36.318,5,37.727,5c1.41,0,2.734,0.549,3.73,1.545c2.057,2.057,2.057,5.403,0,7.461c-0.1,0.098-5.783,5.781-5.783,5.781C35.521,19.939,35.316,20.025,35.102,20.025z"/><path fill="#F57F17" d="M32.916,24.607c-0.48,0-0.934-0.188-1.273-0.526l-7.722-7.722c-0.339-0.339-0.527-0.792-0.527-1.273c0-0.48,0.188-0.934,0.527-1.273l2.106-2.105c0.681-0.681,1.865-0.681,2.548,0l7.721,7.721c0.702,0.703,0.702,1.846,0,2.547l-2.104,2.105C33.85,24.42,33.396,24.607,32.916,24.607z"/><path fill="#E91E63" d="M10.141,32c-0.238,0.259-0.747,0.766-0.943,1c-1.061,1.262-1.551,2.197-1.725,3.066c-0.156,0.779-0.303,1.516-2.235,3.447c-0.046,0.047-0.132,0.127-0.236,0.221l3.25,3.252c0.111-0.104,0.201-0.189,0.234-0.223c1.933-1.935,2.668-2.08,3.447-2.236c1.168-0.233,2.158-0.563,4.273-2.678l5.95-5.851L10.141,32L10.141,32z"/></svg>