<svg xmlns="http://www.w3.org/2000/svg" width="48" height="48" viewBox="0 0 48 48"><path fill="#F44336" d="M43,33c0,5.523-4.477,10-10,10s-10-4.477-10-10s4.477-10,10-10S43,27.477,43,33"/><path fill="#FFF" d="M31.5 27H34.5V39H31.5z" transform="rotate(134.999 33 33)"/><path fill="#FFF" d="M31.501 27H34.501000000000005V38.999H31.501z" transform="rotate(-134.999 33 33)"/><path fill="#1976D2" d="M19.896 19.086c-2.9-2.899-2.889-7.63.025-10.544l1.452-1.451c2.914-2.914 7.644-2.926 10.544-.025 2.878 2.878 2.929 7.521.119 10.572l-1.509 1.511C27.418 22.016 22.773 21.964 19.896 19.086zM29.088 9.894c-1.34-1.34-3.533-1.329-4.887.025l-1.452 1.451c-1.354 1.354-1.365 3.547-.024 4.888 1.354 1.354 3.566 1.357 5.033.005l1.393-1.395C30.445 13.46 30.443 11.249 29.088 9.894zM7.168 31.814c-2.9-2.9-2.889-7.631.024-10.544l1.452-1.452c2.914-2.914 7.644-2.925 10.544-.024 2.877 2.877 2.929 7.521.119 10.572l-1.509 1.511C14.688 34.744 10.045 34.691 7.168 31.814zM16.36 22.622c-1.341-1.341-3.533-1.329-4.888.024l-1.452 1.452c-1.354 1.354-1.365 3.547-.024 4.887 1.355 1.355 3.566 1.358 5.033.006l1.393-1.395C17.718 26.188 17.715 23.977 16.36 22.622z"/><path fill="#42A5F5" d="M13.531,25.449c-0.781-0.78-0.781-2.047,0-2.828l9.192-9.192c0.781-0.781,2.047-0.781,2.829,0c0.78,0.781,0.78,2.048,0,2.828l-9.193,9.192C15.579,26.23,14.313,26.23,13.531,25.449z"/></svg>