<svg xmlns="http://www.w3.org/2000/svg" xmlns:xlink="http://www.w3.org/1999/xlink" viewBox="0 0 48 48"><path fill="#80cbc4" d="M6,10c0-2.2,1.8-4,4-4h28c2.2,0,4,1.8,4,4v28c0,2.2-1.8,4-4,4H10c-2.2,0-4-1.8-4-4V10z"/><path fill="#bee5e1" d="M6 13h36v1H6V13zM6 20h36v1H6V20zM6 34h36v2H6V34z"/><path fill="#bee5e1" d="M34 6h1v36h-1V6zM13 6h1v22h-1V6zM13 34h1v8h-1V34z"/><path fill="#bee5e1" d="M6 27h14v1H6V27zM22 27h20v1H22V27zM20 6h1v18h-1V6zM20 34h1v8h-1V34zM27 34h1v8h-1V34z"/><path fill="#bee5e1" d="M27,6h1v25h-1V6z"/><path fill="#00695c" d="M14.3 34L13 29 11.8 34 6 34 6 32 10.2 32 13 20.9 15.8 32 18.1 32 21 10.4 23.9 32 26.3 32 29 17.8 31.8 32 34.4 32 37 26.7 39.6 32 42 32 42 34 38.4 34 37 31.2 35.6 34 30.2 34 29 28.2 27.9 34 22.1 34 21 25.5 19.9 34z"/></svg>