<svg xmlns="http://www.w3.org/2000/svg" xmlns:xlink="http://www.w3.org/1999/xlink" viewBox="0 0 48 48"><path fill="#D3D3D3" d="M46,7.944L46,7.944c0-0.59-0.506-1.037-1.095-0.998C41.188,7.195,37.77,8.703,35,11.09c-3.04-2.62-6.86-4.18-11-4.18s-7.96,1.56-11,4.18c-2.77-2.387-6.188-3.895-9.905-4.143C2.506,6.907,2,7.355,2,7.944v0c0,0.539,0.428,0.962,0.965,0.998c3.059,0.206,5.881,1.383,8.245,3.258c0.12,0.09,0.23,0.19,0.35,0.28C8.14,16.12,6.01,21.22,6,26.87c0,0.36,0.01,0.72,0.02,1.07c0.2,6.81,2.3,12.13,5.25,13.63c0.26,0.14,0.53,0.24,0.81,0.31C12.38,41.96,12.69,42,13,42s0.62-0.04,0.92-0.12c0.28-0.07,0.55-0.17,0.81-0.31c2.95-1.5,5.05-6.82,5.25-13.63c0.01-0.35,0.02-0.71,0.02-1.07c-0.01-5.65-2.14-10.75-5.56-14.39c0.12-0.09,0.23-0.19,0.35-0.28c2.61-2.07,5.78-3.29,9.21-3.29s6.6,1.22,9.21,3.29c0.12,0.09,0.23,0.19,0.35,0.28c-3.42,3.64-5.55,8.74-5.56,14.39c0,0.36,0.01,0.72,0.02,1.07c0.2,6.81,2.3,12.13,5.25,13.63c0.26,0.14,0.53,0.24,0.81,0.31C34.38,41.96,34.69,42,35,42s0.62-0.04,0.92-0.12c0.28-0.07,0.55-0.17,0.81-0.31c2.95-1.5,5.05-6.82,5.25-13.63c0.01-0.35,0.02-0.71,0.02-1.07c-0.01-5.65-2.14-10.75-5.56-14.39c0.12-0.09,0.23-0.19,0.35-0.28c2.363-1.874,5.186-3.052,8.245-3.258C45.572,8.906,46,8.483,46,7.944z M18,26.87c0,0.32,0,0.65-0.02,0.96c-0.2,7.19-2.69,12.13-4.95,12.17h-0.06c-2.26-0.04-4.75-4.98-4.95-12.17C8,27.52,8,27.19,8,26.87c0-0.32,0-0.64,0.02-0.95c0.23-4.73,2.1-8.99,4.98-12.06c2.88,3.07,4.75,7.33,4.98,12.06C18,26.23,18,26.55,18,26.87z M40,26.87c0,0.32,0,0.65-0.02,0.96c-0.2,7.19-2.69,12.13-4.95,12.17h-0.06c-2.26-0.04-4.75-4.98-4.95-12.17C30,27.52,30,27.19,30,26.87c0-0.32,0-0.64,0.02-0.95c0.23-4.73,2.1-8.99,4.98-12.06c2.88,3.07,4.75,7.33,4.98,12.06C40,26.23,40,26.55,40,26.87z"/></svg>