<svg xmlns="http://www.w3.org/2000/svg" viewBox="0 0 48 48"><path fill="#37474f" d="M12.3,32.9l2.8,2.8l-7.3,7.3L5,40.1L12.3,32.9z"/><path fill="#455a64" d="M29,33L15,19c0,0-0.5,8.4-6.5,14.4c0,0-1.2,0.9,0,2.2c0.7,0.7,3.3,3.3,4,4c1.2,1.2,2.2,0,2.2,0 C20.6,33.5,29,33,29,33z"/><path fill="#fff" d="M41.5,19c0,6.9-5.6,12.5-12.5,12.5S16.5,25.9,16.5,19S22.1,6.5,29,6.5S41.5,12.1,41.5,19z"/><path fill="#607d8b" d="M29,33c-7.7,0-14-6.3-14-14S21.3,5,29,5s14,6.3,14,14S36.7,33,29,33z M29,8c-6.1,0-11,4.9-11,11 s4.9,11,11,11s11-4.9,11-11S35.1,8,29,8z"/><path fill="#8bc34a" d="M29,28v-4c2.8,0,5-2.2,5-5s-2.2-5-5-5v-4c5,0,9,4,9,9S34,28,29,28z"/><path fill="#ffeb3b" d="M24,19h-4c0-5,4-9,9-9v4C26.2,14,24,16.2,24,19z"/><path fill="#ff3d00" d="M24,19h-4c0-2.7,1.2-5.2,3.2-6.9l2.6,3.1C24.7,16.1,24,17.5,24,19z"/><path fill="#37474f" d="M31,19c0,1.1-0.9,2-2,2s-2-0.9-2-2s0.9-2,2-2S31,17.9,31,19z"/><path fill="#37474f" d="M28.3,19.7c-0.4-0.4-0.4-1,0-1.4s6.2-4.8,6.2-4.8s-4.4,5.8-4.8,6.2S28.7,20.1,28.3,19.7z"/></svg>