<svg xmlns="http://www.w3.org/2000/svg" xmlns:xlink="http://www.w3.org/1999/xlink" viewBox="0 0 16 16" fill="#5B5B5B">
  <path d="M11.46875 1.03125L10.761719 1.738281L13.023438 4L8 4L8 5L13.023438 5L10.761719 7.261719L11.46875 7.96875L14.9375 4.5 Z M 2 4L2 5L3 5L3 4 Z M 4 4L4 5L5 5L5 4 Z M 6 4L6 5L7 5L7 4 Z" fill="#5B5B5B"/>
  <path d="M 4.53125 7.03125L1.0625 10.5L4.53125 13.96875L5.238281 13.261719L2.976563 11L8 11L8 10L2.976563 10L5.238281 7.738281 Z M 9 10L9 11L10 11L10 10 Z M 11 10L11 11L12 11L12 10 Z M 13 10L13 11L14 11L14 10Z" fill="#2196F3" />
</svg>