<svg xmlns="http://www.w3.org/2000/svg" xmlns:xlink="http://www.w3.org/1999/xlink" width="48" height="48">
<path fill="#cfd8dc" d="M15,31 c-0.7,0 -1.3,-0.3 -3,-1.1 c-0.4,-0.2 -0.9,-0.4 -1.3,-0.6 c-0.4,0.4 -1,1.1 -1.5,1.7 l-3.1,-2.5 C9,25 10,25 10,25 c0.7,0 1.4,0.3 3.4,1.3 c0.4,0.2 0.8,0.4 1.2,0.6 c0.4,-0.2 0.9,-0.5 1.2,-0.7 c1.5,-0.9 2.1,-1.2 2.8,-1.2 c0.6,0 1.1,0.2 1.8,0.5 c0.2,0.1 0.5,0.2 0.7000000000000006,0.3000000000000003 c0.5,-0.5 1.2,-1.4 1.8,-2 C26.2563105404377,21.22330129146576 27.156310540437698,20.22330129146576 28.4563105404377,20.22330129146576 c1.3,0 2.4,0.9 3.8,2.2 c0.5,0.4 1.2,1.1 1.8,1.5 c0.1,-0.1 0.2,-0.3 0.3,-0.4 c0.8,-1.1 1.7,-2.3 3.1,-2.3 c0.7,0 1.3,0.3 1.9,0.7 c0.4,-1.8 0.8,-4.4 1.1,-6.7 l4,0.6 c-1.6,11 -2.1,11.4 -4,11.4 c-1,0 -1.8,-0.6 -2.6,-1.4 c0,0 -0.1,-0.1 -0.1,-0.1 c0,0.1 -0.1,0.1 -0.1,0.2 C36.7,27 35.8,28.2 34.4,28.2 c-1.7,0 -3.2,-1.3 -4.8,-2.8 c-0.3,-0.3 -0.7,-0.6 -1,-0.9 c-0.6,0.6 -1.3,1.5 -1.8,2.1 C24.5563105404377,29.22330129146576 23.7563105404377,30.22330129146576 22.4563105404377,30.22330129146576 c-0.8,0 -1.6,-0.3 -2.7,-0.8 c-0.1,0 -0.1,0 -0.2,-0.1 c-0.3,0.2 -0.7,0.4 -0.9,0.5 C16.856310540437697,30.92330129146576 16.2563105404377,31.22330129146576 15.456310540437698,31.22330129146576 zM15.856310540437697,27.32330129146576 C15.856310540437697,27.32330129146576 15.856310540437697,27.32330129146576 15.856310540437697,27.32330129146576 S15.856310540437697,27.32330129146576 15.856310540437697,27.32330129146576 z" />
<path fill="#cfd8dc" d="M4,41 h42.8543701171875 v2 H4 V41 z"/>
<path fill="#cfd8dc" d="M-14,22 h38 v2 H-14 V22 z"  transform="rotate(-90 5,23) "/>

</svg>