<svg xmlns="http://www.w3.org/2000/svg" xmlns:xlink="http://www.w3.org/1999/xlink" width="48" height="48" viewBox="0 0 48 48"><path fill="#B0BEC5" d="M40.673,7.568c-1.698-1.699-4.194-0.428-5.425,0.797C34.023,9.588,6.186,40.166,7.019,41c0.834,0.834,31.589-26.734,32.853-28.004C41.14,11.73,42.365,9.262,40.673,7.568z M38.361,11.922c-0.468,0.609-0.615,0.616-1.854,1.855c-0.804,0.804-1.916,0.998-2.478,0.436c-0.559-0.563-0.367-1.668,0.439-2.469c0.36-0.361,2.019-2.028,2.085-2.054c0.771-0.609,1.707-0.717,2.211-0.212c0.558,0.552,0.37,1.633-0.395,2.429C38.367,11.912,38.365,11.917,38.361,11.922z"/><path fill="#E91E63" d="M30.007 32.896c0-2.791 2.025-4.833 4.17-6.994 2.372-2.393 4.825-4.865 4.825-8.59 0-1.058-.156-2.104-.448-3.093-.463.425-1.034.944-1.696 1.544.097.548.146 1.075.146 1.549 0 2.9-2.063 4.979-4.245 7.181-2.335 2.354-4.75 4.789-4.75 8.403 0 6.939 7.539 9.104 11.994 9.104H43v-2h-2.998C39.594 40 30.007 39.61 30.007 32.896zM36.178 10.103c-.018-.019-.038-.034-.056-.053-.427-.431-.884-.816-1.362-1.164C31.518 6.538 27.234 6 24.01 6h-.999v2h.999c2.85 0 6.589.455 9.381 2.382.474.326.927.684 1.336 1.101.006.006.014.011.021.018l.08.082c.677.677 1.16 1.497 1.504 2.348.059-.05.119-.096.176-.152.751-.752 1.099-1.049 1.362-1.303C37.425 11.587 36.855 10.782 36.178 10.103z"/></svg>