<svg xmlns="http://www.w3.org/2000/svg" xmlns:xlink="http://www.w3.org/1999/xlink" width="48" height="48" viewBox="0 0 48 48"><path fill="#3949AB" d="M7.517 39L6.017 36.5 7.517 34 10.517 34 12.017 36.5 10.517 39zM24.267 32L23.017 30 24.267 28 26.767 28 28.017 30 26.767 32zM19.517 16L18.017 13.5 19.517 11 22.517 11 24.017 13.5 22.517 16zM37.517 29L36.017 26.5 37.517 24 40.517 24 42.017 26.5 40.517 29zM31.628 33L31.017 32 31.628 31 32.854 31 33.466 32 32.854 33zM9.767 15L9.017 13.775 9.767 12.551 11.267 12.551 12.017 13.775 11.267 15z"/><g><path fill="#1E88E5" d="M10.767 24L9.017 21 10.767 18 14.267 18 16.017 21 14.267 24zM21.767 42L20.017 39 21.767 36 25.267 36 27.017 39 25.267 42zM28.517 23L26.017 18.5 28.517 14 33.517 14 36.017 18.5 33.517 23z"/></g><g><path fill="#64B5F6" d="M11.553 37L8.017 31 11.553 25 18.48 25 22.017 31 18.48 37zM32.017 17L29.017 11.455 32.017 6 39.017 6 42.017 11.455 39.017 17z"/></g></svg>