<svg xmlns="http://www.w3.org/2000/svg" viewBox="0 0 48 48"><path fill="#ff8f00" d="M26.775 35.889L27.716 39.315 24.461 37.994 21.529 39.98 21.765 36.425 19 34.22 22.412 33.337 23.618 30 25.5 33.009 29 33.138zM12.325 40.078L13.466 44.191 9.551 42.614 6.039 45 6.315 40.727 3 38.072 7.092 37.013 8.538 33 10.8 36.614 15 36.774zM11.775 17.896L12.716 21.333 9.461 20.018 6.529 22 6.765 18.434 4 16.223 7.412 15.347 8.618 12 10.5 15.008 14 15.137z"/><g><path fill="#ff6f00" d="M33.71 26.71l-4.45 4.44-.19-.01-2.44-.09-.03-.06 5.69-5.7c.39-.39 1.03-.39 1.42 0C34.1 25.68 34.1 26.32 33.71 26.71zM19 17c-.256 0-.512-.098-.707-.293-.391-.391-.391-1.023 0-1.414l5-5c.391-.391 1.023-.391 1.414 0s.391 1.023 0 1.414l-5 5C19.512 16.902 19.256 17 19 17zM37 36c-.256 0-.512-.098-.707-.293-.391-.391-.391-1.023 0-1.414l4-4c.391-.391 1.023-.391 1.414 0s.391 1.023 0 1.414l-4 4C37.512 35.902 37.256 36 37 36zM26.71 22.71L14.65 34.76l-2.72-.1 13.36-13.37c.39-.39 1.03-.39 1.42 0C27.1 21.68 27.1 22.32 26.71 22.71zM16.71 10.71l-2.44 2.44-.2-.01-2.44-.09-.03-.06 3.69-3.7c.39-.39 1.03-.39 1.42 0C17.1 9.68 17.1 10.32 16.71 10.71z"/></g><g><path fill="#e65100" d="M37 12c-.256 0-.512-.098-.707-.293-.391-.391-.391-1.023 0-1.414l2-2c.391-.391 1.023-.391 1.414 0s.391 1.023 0 1.414l-2 2C37.512 11.902 37.256 12 37 12zM29 20c-.256 0-.512-.098-.707-.293-.391-.391-.391-1.023 0-1.414l5-5c.391-.391 1.023-.391 1.414 0s.391 1.023 0 1.414l-5 5C29.512 19.902 29.256 20 29 20zM19 8c-.256 0-.512-.098-.707-.293-.391-.391-.391-1.023 0-1.414l1-1c.391-.391 1.023-.391 1.414 0s.391 1.023 0 1.414l-1 1C19.512 7.902 19.256 8 19 8zM27 9c-.256 0-.512-.098-.707-.293-.391-.391-.391-1.023 0-1.414l2-2c.391-.391 1.023-.391 1.414 0s.391 1.023 0 1.414l-2 2C27.512 8.902 27.256 9 27 9zM36 24c-.256 0-.512-.098-.707-.293-.391-.391-.391-1.023 0-1.414l2-2c.391-.391 1.023-.391 1.414 0s.391 1.023 0 1.414l-2 2C36.512 23.902 36.256 24 36 24zM42 5A1 1 0 1 0 42 7 1 1 0 1 0 42 5zM32 2A1 1 0 1 0 32 4 1 1 0 1 0 32 2zM23 2A1 1 0 1 0 23 4 1 1 0 1 0 23 2zM41 17A1 1 0 1 0 41 19 1 1 0 1 0 41 17zM44 27A1 1 0 1 0 44 29 1 1 0 1 0 44 27z"/></g></svg>