<svg xmlns="http://www.w3.org/2000/svg" xmlns:xlink="http://www.w3.org/1999/xlink" viewBox="0 0 48 48">
<path fill="#b0bec5" d="M41,7h2v34h-2V7z"/>
<path fill="#b0bec5" d="M37 7h5v2h-5V7zM37 39h5v2h-5V39zM37 23h5v2h-5V23zM39 19h3v2h-3V19zM39 15h3v2h-3V15zM39 11h3v2h-3V11zM39 35h3v2h-3V35zM39 31h3v2h-3V31zM39 27h3v2h-3V27z"/>
<path fill="#2196f3" d="M16 43.1L14 43.1 12.6 22.3 11 33.1 9 33.1 7.8 24.1 7 28.2 5 27.8 7 17.8 9 17.9 10.1 25.9 12 12.9 14 12.9 15.1 29.2 17 4.9 19 4.9 20.6 24.6 22 19.7 24 19.8 25.6 30.3 27 11.9 29 11.9 31.1 25.9 32 20.8 34 21.2 32 32.2 30 32.1 28.3 21 27 39.1 25 39.2 22.7 24.5 21 30.3 19 30.1 18 17.6z"/>
</svg>