<svg xmlns="http://www.w3.org/2000/svg" xmlns:xlink="http://www.w3.org/1999/xlink" viewBox="0 0 48 48"><path fill="#DCEDC8" d="M42,37c0,2.8-2.2,5-5,5H11c-2.8,0-5-2.2-5-5V11c0-2.8,2.2-5,5-5h26c2.8,0,5,2.2,5,5V37z"/><path fill="#C5E1A5" d="M9 9H39V18H9z"/><path fill="#4CAF50" d="M37,10c0.6,0,1,0.4,1,1v26c0,0.6-0.4,1-1,1H11c-0.6,0-1-0.4-1-1V11c0-0.6,0.4-1,1-1H37 M37,6H11c-2.8,0-5,2.2-5,5v26c0,2.8,2.2,5,5,5h26c2.8,0,5-2.2,5-5V11C42,8.2,39.8,6,37,6L37,6z"/><path fill="#AED581" d="M38,26H10v-2h28V26z M38,31H10v2h28V31z"/><path fill="#388E3C" d="M38 17L19 17 19 10 17 10 17 17 10 17 10 19 17 19 17 38 19 38 19 19 38 19z"/></svg>