<svg xmlns="http://www.w3.org/2000/svg" xmlns:xlink="http://www.w3.org/1999/xlink" viewBox="0 0 48 48"><path fill="#00acc1" d="M37.662,30.5c-2.7,0-3.864-2.723-4.799-4.911c-0.588-1.376-1.32-3.089-2.04-3.089 c-0.718,0-1.45,1.713-2.038,3.089c-0.935,2.188-2.098,4.911-4.796,4.911c-2.698,0-3.86-2.723-4.793-4.911 c-0.587-1.376-1.318-3.089-2.035-3.089c-0.717,0-1.448,1.713-2.036,3.089c-0.934,2.188-2.097,4.911-4.795,4.911 c-2.698,0-3.86-2.723-4.794-4.911C4.948,24.213,4.217,22.5,3.5,22.5v-3c2.698,0,3.861,2.723,4.794,4.911 C8.882,25.788,9.613,27.5,10.33,27.5c0.717,0,1.449-1.713,2.037-3.089c0.934-2.188,2.097-4.911,4.795-4.911 c2.698,0,3.86,2.723,4.793,4.911c0.587,1.376,1.318,3.089,2.035,3.089c0.718,0,1.45-1.713,2.038-3.089 c0.935-2.188,2.098-4.911,4.796-4.911c2.7,0,3.863,2.723,4.798,4.91c0.588,1.376,1.32,3.09,2.04,3.09 c0.719,0,1.451-1.713,2.04-3.089C40.636,22.223,41.8,19.5,44.5,19.5v3c-0.72,0-1.452,1.713-2.04,3.09 C41.525,27.777,40.361,30.5,37.662,30.5z"/></svg>